<?xml version="1.0" encoding="iso-8859-1"?>
<!-- Generator: Adobe Illustrator 19.0.0, SVG Export Plug-In . SVG Version: 6.00 Build 0)  -->
<svg version="1.1" id="Capa_1" xmlns="http://www.w3.org/2000/svg" xmlns:xlink="http://www.w3.org/1999/xlink" x="0px" y="0px"
	 viewBox="0 0 512 512" style="enable-background:new 0 0 512 512;" xml:space="preserve">
<linearGradient id="SVGID_1_" gradientUnits="userSpaceOnUse" x1="72.5273" y1="257.2224" x2="440.6736" y2="257.2224" gradientTransform="matrix(0.998 0 0 -0.998 -0.0963 512.7169)">
	<stop  offset="0" style="stop-color:#00F2FE"/>
	<stop  offset="0.021" style="stop-color:#03EFFE"/>
	<stop  offset="0.293" style="stop-color:#24D2FE"/>
	<stop  offset="0.554" style="stop-color:#3CBDFE"/>
	<stop  offset="0.796" style="stop-color:#4AB0FE"/>
	<stop  offset="1" style="stop-color:#4FACFE"/>
</linearGradient>
<path style="fill:url(#SVGID_1_);" d="M180.596,512c-8.575,0.001-17.217-2.694-24.809-8.169
	c-17.044-12.292-22.463-34.044-13.176-52.896l69.475-142.542h-69.865c-24.496,0-46.762-12.468-59.565-33.353
	c-12.801-20.885-13.807-46.386-2.69-68.214l99.344-195.892C182.711,4.226,189.594,0,197.113,0h189.627
	c7.182,0,13.81,3.858,17.357,10.103s3.466,13.914-0.214,20.081L323.08,165.674h68.211c19.167,0,36.009,10.743,43.952,28.037
	c7.976,17.364,5.136,37.227-7.412,51.837c-7.181,8.364-19.783,9.319-28.148,2.137c-8.363-7.183-9.32-19.785-2.137-28.149
	c3.19-3.715,2.259-7.336,1.419-9.162c-0.819-1.784-2.907-4.779-7.676-4.779H287.933c-7.182,0-13.81-3.858-17.357-10.103
	s-3.466-13.914,0.214-20.081l80.804-135.489H209.371l-93.815,184.99c-4.85,9.525-4.429,20.181,1.139,29.265
	c5.568,9.085,14.872,14.295,25.527,14.295h101.8c6.882,0,13.279,3.545,16.927,9.381c3.647,5.836,4.031,13.139,1.017,19.325
	L178.46,468.502c-0.497,1.009-0.894,1.815,0.679,2.95c1.269,0.915,1.93,0.681,2.528,0.173l154.077-177.322
	c7.229-8.322,19.836-9.207,28.16-1.975c8.322,7.231,9.206,19.838,1.975,28.16L211.183,498.522c-0.333,0.384-0.683,0.755-1.045,1.114
	C201.843,507.822,191.272,512,180.596,512z"/>
<g>
</g>
<g>
</g>
<g>
</g>
<g>
</g>
<g>
</g>
<g>
</g>
<g>
</g>
<g>
</g>
<g>
</g>
<g>
</g>
<g>
</g>
<g>
</g>
<g>
</g>
<g>
</g>
<g>
</g>
</svg>
