<?xml version="1.0" encoding="iso-8859-1"?>
<!-- Generator: Adobe Illustrator 19.0.0, SVG Export Plug-In . SVG Version: 6.00 Build 0)  -->
<svg version="1.1" id="Capa_1" xmlns="http://www.w3.org/2000/svg" xmlns:xlink="http://www.w3.org/1999/xlink" x="0px" y="0px"
	 viewBox="0 0 512 512" style="enable-background:new 0 0 512 512;" xml:space="preserve">
<linearGradient id="SVGID_1_" gradientUnits="userSpaceOnUse" x1="0" y1="258" x2="512" y2="258" gradientTransform="matrix(1 0 0 -1 0 514)">
	<stop  offset="0" style="stop-color:#00F2FE"/>
	<stop  offset="0.021" style="stop-color:#03EFFE"/>
	<stop  offset="0.293" style="stop-color:#24D2FE"/>
	<stop  offset="0.554" style="stop-color:#3CBDFE"/>
	<stop  offset="0.796" style="stop-color:#4AB0FE"/>
	<stop  offset="1" style="stop-color:#4FACFE"/>
</linearGradient>
<path style="fill:url(#SVGID_1_);" d="M253.018,405c-3.315,0-14.146-1.03-19.076-13.836l-31.418-81.688l-82.703-31.809
	c-7.571-2.912-12.634-10.109-12.815-18.22c-0.182-8.109,4.554-15.526,11.987-18.774l222-97c7.522-3.285,16.291-1.643,22.111,4.146
	c5.821,5.79,7.513,14.548,4.267,22.089l-96,223c-3.146,7.31-10.328,12.059-18.287,12.092C253.062,405,253.039,405,253.018,405z
	 M179.649,257.821l45.53,17.512c5.282,2.031,9.456,6.206,11.487,11.488c4.77,12.402,11.271,29.307,17.375,45.179l56.566-131.399
	L179.649,257.821z M388.462,475.106c9.447-5.724,12.467-18.021,6.744-27.469c-5.724-9.449-18.021-12.467-27.469-6.744
	C334.144,461.244,295.505,472,256,472c-119.103,0-216-96.897-216-216S136.897,40,256,40s216,96.897,216,216
	c0,42.589-12.665,84.044-36.626,119.884c-6.14,9.183-3.672,21.604,5.51,27.742c9.185,6.14,21.604,3.672,27.742-5.51
	C497.002,355.674,512,306.53,512,256c0-68.38-26.629-132.667-74.98-181.02C388.667,26.629,324.38,0,256,0
	S123.333,26.629,74.98,74.98C26.629,123.333,0,187.62,0,256s26.629,132.667,74.98,181.02C123.333,485.371,187.62,512,256,512
	C302.813,512,348.617,499.242,388.462,475.106z"/>
<g>
</g>
<g>
</g>
<g>
</g>
<g>
</g>
<g>
</g>
<g>
</g>
<g>
</g>
<g>
</g>
<g>
</g>
<g>
</g>
<g>
</g>
<g>
</g>
<g>
</g>
<g>
</g>
<g>
</g>
</svg>
