<?xml version="1.0" encoding="utf-8"?>
<!-- Generator: Adobe Illustrator 24.3.0, SVG Export Plug-In . SVG Version: 6.00 Build 0)  -->
<svg version="1.1" id="Layer_1" xmlns="http://www.w3.org/2000/svg" xmlns:xlink="http://www.w3.org/1999/xlink" x="0px" y="0px"
	 viewBox="0 0 841.9 595.3" style="enable-background:new 0 0 841.9 595.3;" xml:space="preserve">
<style type="text/css">
	.st0{fill:#FF8C00;}
</style>
<g>
	<path class="st0" d="M469.6,266.4v50.5c0,0.8-0.6,1.4-1.4,1.4h-10.3c-0.8,0-1.4-0.6-1.4-1.4v-50.5c0-0.8,0.6-1.4,1.4-1.4h10.3
		C469,265.1,469.6,265.7,469.6,266.4z M550,265.1h-11.5c-0.6,0-1.1,0.4-1.3,1l-9.1,29.9l-10-29.9c-0.2-0.6-0.7-0.9-1.3-0.9h-8.1
		c-0.6,0-1.1,0.4-1.3,0.9l-10,29.9l-9.1-29.9c-0.2-0.6-0.7-1-1.3-1h-11.5c-0.4,0-0.9,0.2-1.1,0.6c-0.3,0.4-0.3,0.8-0.2,1.2l17,50.6
		c0.2,0.6,0.7,0.9,1.3,0.9h9.2c0.6,0,1.1-0.4,1.3-0.9l9.9-29.5l9.9,29.5c0.2,0.6,0.7,0.9,1.3,0.9h9.2c0.6,0,1.1-0.4,1.3-0.9l17-50.6
		c0.1-0.4,0.1-0.9-0.2-1.2C550.9,265.3,550.5,265.1,550,265.1z M567.4,265.1h-10.3c-0.8,0-1.4,0.6-1.4,1.4V317
		c0,0.8,0.6,1.4,1.4,1.4h10.3c0.8,0,1.4-0.6,1.4-1.4v-50.5C568.8,265.7,568.1,265.1,567.4,265.1z M450.6,316.6
		c0.6,0.7,0.1,1.7-0.8,1.7h-12.6c-0.5,0-1-0.2-1.3-0.6l-2.1-2.6c-4.4,2.8-9.6,4.5-15.1,4.5c-15.4,0-27.9-12.5-27.9-27.9
		s12.5-27.9,27.9-27.9s27.9,12.5,27.9,27.9c0,5.5-1.6,10.7-4.4,15.1L450.6,316.6z M425.5,305.4l-5.5-6.7c-0.6-0.7-0.1-1.8,0.8-1.8
		h11.6c0.6-1.6,0.9-3.4,0.9-5.2c0-8.3-6.2-15.5-14.7-15.5s-14.7,7.2-14.7,15.5c0,8.3,6.2,15.4,14.7,15.4
		C421.1,307.2,423.4,306.5,425.5,305.4z M358.9,316.4c0.3,2.1-0.4,3-1,3c-0.7,0-1.6-0.9-2.7-2.5c-1.1-1.7-1.5-3.6-0.9-4.5
		c0.3-0.6,1.1-0.9,2-0.6C358,312.4,358.7,315.1,358.9,316.4z M349,320.9c2.1,1.8,2.8,4,1.7,5.5c-0.6,0.8-1.6,1.3-2.9,1.3
		c-1.2,0-2.4-0.4-3.3-1.2c-1.9-1.7-2.5-4.5-1.2-6c0.5-0.6,1.3-0.9,2.3-0.9C346.7,319.6,347.9,320.1,349,320.9z M345.4,338.4
		c9.2,0,19.2,3.2,30.3,13c1.1,1,2.6-0.2,1.6-1.5c-10.9-13.7-20.9-16.3-30.9-18.5c-12.3-2.7-18.6-9.6-23-17.2
		c-0.9-1.5-1.3-1.2-1.3,0.7c-0.1,2.4,0.1,5.5,0.6,8.6l0,0c-0.5,0-1,0-1.5,0c-17.5,0-31.8-14.2-31.8-31.8c0-17.5,14.2-31.8,31.8-31.8
		s31.8,14.2,31.8,31.8c0,1.2-0.1,2.5-0.2,3.7c-2.3-0.4-6.9-0.5-10.1-0.2c-1.2,0.1-1,0.7-0.1,0.8c10.5,1.9,17.7,8.4,19.4,20.2
		c0,0.3,0.4,0.4,0.5,0.1c4.3-7.2,6.8-15.6,6.8-24.7c0-26.5-21.5-48.1-48.1-48.1s-48.1,21.5-48.1,48.1c0,26.5,21.5,48.1,48.1,48.1
		C328.2,339.8,335.2,338.4,345.4,338.4z"/>
</g>
</svg>
