<svg width="599" height="80" viewBox="0 0 599 80" fill="none" xmlns="http://www.w3.org/2000/svg">
<path d="M56.5071 77.619V22.2218H89.2057V2.0635H0V22.2218H32.6977V77.619H56.5071ZM122.544 2.0635H98.7344V77.619H122.544V2.0635ZM139.966 2.0635V77.619H161.871V35.873L202.665 77.619H222.982V2.0635H201.077V43.4919L161.236 2.0635H139.966ZM269.778 49.0474L297.238 77.619H327.873L289.619 38.254L326.444 2.0635H297.555L269.778 30.4758H263.428V2.0635H240.413V77.619H263.428V49.0474H269.778ZM375.231 0C344.279 0 325.707 17.4606 325.707 40C325.707 62.5393 344.279 80 375.231 80C406.024 80 424.595 62.5393 424.595 40C424.595 17.4606 406.024 0 375.231 0ZM375.231 61.5867C359.834 61.5867 349.993 52.381 349.993 40C349.993 27.619 359.834 18.5716 375.231 18.5716C390.468 18.5716 400.468 27.619 400.468 40C400.468 52.381 390.468 61.5867 375.231 61.5867ZM511.881 2.0635H435.532V77.619H458.548V51.2692H508.547V34.6028H458.548V21.2701H511.881V2.0635ZM598.53 2.0635H522.182V77.619H545.198V51.2692H595.197V34.6028H545.198V21.2701H598.53V2.0635Z" fill="black"/>
</svg>
